{"asset":{"version":"2.0","generator":"VECTARY"},"nodes":[{"translation":[7.417341594915871e-18,7.417341594915872e-18,-7.417341594915872e-18],"scale":[0.0334047368429428,0.0334047368429428,0.0334047368429428],"rotation":[-0.7071067811865475,0,0,0.7071067811865476],"name":"Flying Saucer","children":[1,2,3,4,5]},{"translation":[-5.138248318759507e-8,-6.4279511496655e-8,2.35115760564804],"scale":[1,0.9999999999999996,0.9999999999999994],"rotation":[0.7010573846499777,-0.09229595564125727,-0.09229595564125724,0.7010573846499781],"name":"Frame","mesh":0},{"translation":[-1.3567618029064477e-7,8.172145560464735e-8,1.3796443939208989],"scale":[1,0.9999999999999996,0.9999999999999994],"rotation":[0.7010573846499777,-0.09229595564125727,-0.09229595564125724,0.7010573846499781],"name":"Body","mesh":1},{"translation":[-1.3567618017962246e-7,8.172145560464735e-8,1.163862764835358],"scale":[1,0.9999999999999996,0.9999999999999994],"rotation":[0.7010573846499777,-0.09229595564125727,-0.09229595564125724,0.7010573846499781],"name":"Light","mesh":2},{"translation":[-5.1382483101658494e-8,-6.427951082315878e-8,2.347537040710449],"scale":[1,0.9999999999999996,0.9999999999999994],"rotation":[0.7010573846499777,-0.09229595564125727,-0.09229595564125724,0.7010573846499781],"name":"Dome","mesh":3},{"translation":[-1.3567618040166707e-7,8.172145516055814e-8,2.0722670555114746],"scale":[1,0.9999999999999996,0.9999999999999994],"rotation":[0.7010573846499777,-0.09229595564125727,-0.09229595564125724,0.7010573846499781],"name":"Chassis","mesh":4},{"translation":[-0.2607550897548854,0.34230983456340086,0.56976026566276],"scale":[1,1,1],"rotation":[-0.2417288251229585,-0.20633805375565445,-0.05268675506697823,0.9466867953645045],"name":"Camera","camera":0}],"materials":[{"pbrMetallicRoughness":{"baseColorFactor":[1,1,1,1],"metallicFactor":1,"roughnessFactor":1},"name":"Material 69","emissiveFactor":[0.12015573680400848,0.3390901982784271,1],"alphaMode":"OPAQUE","doubleSided":false},{"pbrMetallicRoughness":{"baseColorFactor":[0.8000000715255736,0.012169779278337955,0.0024884592276066537,1],"metallicFactor":0,"roughnessFactor":0},"name":"Material 70","emissiveFactor":[0,0,0],"alphaMode":"OPAQUE","doubleSided":false},{"pbrMetallicRoughness":{"baseColorFactor":[0,0,0,1],"metallicFactor":0,"roughnessFactor":0},"name":"Material 71","emissiveFactor":[0,0,0],"alphaMode":"OPAQUE","doubleSided":false},{"pbrMetallicRoughness":{"baseColorFactor":[0.0030954563990235316,0.0030954563990235316,0.0030954563990235316,1],"metallicFactor":0,"roughnessFactor":0.37272727489471436},"name":"Material 72","emissiveFactor":[0,0,0],"alphaMode":"OPAQUE","doubleSided":false}],"meshes":[{"primitives":[{"mode":4,"attributes":{"POSITION":1,"NORMAL":2},"material":0,"indices":0}]},{"primitives":[{"mode":4,"attributes":{"POSITION":4,"NORMAL":5},"material":1,"indices":3}]},{"primitives":[{"mode":4,"attributes":{"POSITION":7,"NORMAL":8},"material":0,"indices":6}]},{"primitives":[{"mode":4,"attributes":{"POSITION":10,"NORMAL":11},"material":2,"indices":9}]},{"primitives":[{"mode":4,"attributes":{"POSITION":13,"NORMAL":14},"material":3,"indices":12}]}],"accessors":[{"bufferView":0,"byteOffset":0,"componentType":5125,"count":1728,"type":"SCALAR"},{"bufferView":1,"byteOffset":0,"componentType":5126,"count":1152,"max":[1.0823280811309814,0.38560956716537476,1.0823280811309814],"min":[-1.0823280811309814,-0.38560956716537476,-1.0823280811309814],"type":"VEC3"},{"bufferView":2,"byteOffset":0,"componentType":5126,"count":1152,"type":"VEC3"},{"bufferView":3,"byteOffset":0,"componentType":5125,"count":1452,"type":"SCALAR"},{"bufferView":4,"byteOffset":0,"componentType":5126,"count":500,"max":[2.779188632965088,1.3796443939208984,2.779188632965088],"min":[-2.779188632965088,-1.3796443939208984,-2.779188632965088],"type":"VEC3"},{"bufferView":5,"byteOffset":0,"componentType":5126,"count":500,"type":"VEC3"},{"bufferView":6,"byteOffset":0,"componentType":5125,"count":246,"type":"SCALAR"},{"bufferView":7,"byteOffset":0,"componentType":5126,"count":84,"max":[2.747199535369873,0.7571843266487122,2.747199058532715],"min":[-2.747199535369873,-0.7571843266487122,-2.747199058532715],"type":"VEC3"},{"bufferView":8,"byteOffset":0,"componentType":5126,"count":84,"type":"VEC3"},{"bufferView":9,"byteOffset":0,"componentType":5125,"count":216,"type":"SCALAR"},{"bufferView":10,"byteOffset":0,"componentType":5126,"count":54,"max":[1.068998098373413,0.37511134147644043,1.068998098373413],"min":[-1.068998098373413,-0.37511134147644043,-1.068998098373413],"type":"VEC3"},{"bufferView":11,"byteOffset":0,"componentType":5126,"count":54,"type":"VEC3"},{"bufferView":12,"byteOffset":0,"componentType":5125,"count":1449,"type":"SCALAR"},{"bufferView":13,"byteOffset":0,"componentType":5126,"count":532,"max":[2.779188632965088,1.7122933864593506,2.779188632965088],"min":[-2.779188632965088,-1.7122933864593506,-2.779188632965088],"type":"VEC3"},{"bufferView":14,"byteOffset":0,"componentType":5126,"count":532,"type":"VEC3"}],"bufferViews":[{"buffer":0,"byteOffset":0,"byteLength":6912,"target":34963},{"buffer":0,"byteOffset":6912,"byteLength":13824,"target":34962},{"buffer":0,"byteOffset":20736,"byteLength":13824,"target":34962},{"buffer":0,"byteOffset":34560,"byteLength":5808,"target":34963},{"buffer":0,"byteOffset":40368,"byteLength":6000,"target":34962},{"buffer":0,"byteOffset":46368,"byteLength":6000,"target":34962},{"buffer":0,"byteOffset":52368,"byteLength":984,"target":34963},{"buffer":0,"byteOffset":53352,"byteLength":1008,"target":34962},{"buffer":0,"byteOffset":54360,"byteLength":1008,"target":34962},{"buffer":0,"byteOffset":55368,"byteLength":864,"target":34963},{"buffer":0,"byteOffset":56232,"byteLength":648,"target":34962},{"buffer":0,"byteOffset":56880,"byteLength":648,"target":34962},{"buffer":0,"byteOffset":57528,"byteLength":5796,"target":34963},{"buffer":0,"byteOffset":63324,"byteLength":6384,"target":34962},{"buffer":0,"byteOffset":69708,"byteLength":6384,"target":34962}],"cameras":[{"name":"Camera","type":"perspective","extras":{"targetDistance":0.714},"perspective":{"aspectRatio":0.7844036697247706,"yfov":0.6108652381980153,"zfar":47.0967096709671,"znear":0.003780978097809781}}],"scene":0,"scenes":[{"nodes":[0,6],"name":"Project Name"}],"extensionsUsed":["KHR_texture_transform"],"buffers":[{"byteLength":76092,"uri":"ProjectName.bin"}]}